<svg xmlns="http://www.w3.org/2000/svg" xmlns:xlink="http://www.w3.org/1999/xlink" id="Layer_1" width="960" height="560" x="0" y="0" enable-background="new 0 0 960 560" version="1.1" viewBox="0 0 960 560" xml:space="preserve"><g><g><defs><path id="SVGID_1_" d="M109.5,56.5c-80.251,89.575,32,480,32,480l648,17l-8-526C781.5,27.5,221.707-68.745,109.5,56.5z"/></defs><clipPath id="SVGID_2_"><use overflow="visible" xlink:href="#SVGID_1_"/></clipPath><g clip-path="url(#SVGID_2_)"><defs><rect id="SVGID_3_" width="851" height="851" x="44.5" y="-79.5"/></defs><clipPath id="SVGID_4_"><use overflow="visible" xlink:href="#SVGID_3_"/></clipPath></g></g><g><defs><path id="SVGID_5_" d="M109.5,56.5c-80.251,89.575,32,480,32,480l648,17l-8-526C781.5,27.5,221.707-68.745,109.5,56.5z"/></defs><clipPath id="SVGID_6_"><use overflow="visible" xlink:href="#SVGID_5_"/></clipPath><g clip-path="url(#SVGID_6_)"><defs><rect id="SVGID_7_" width="851" height="851" x="44.5" y="-79.5"/></defs><clipPath id="SVGID_8_"><use overflow="visible" xlink:href="#SVGID_7_"/></clipPath><g clip-path="url(#SVGID_8_)"><image width="851" height="851" overflow="visible" transform="matrix(1 0 0 1 44.5 -79.5005)" xlink:href="home-about-section.jpg"/></g></g></g><g><defs><path id="SVGID_9_" d="M109.5,56.5c-80.251,89.575,32,480,32,480l648,17l-8-526C781.5,27.5,221.707-68.745,109.5,56.5z"/></defs><clipPath id="SVGID_10_"><use overflow="visible" xlink:href="#SVGID_9_"/></clipPath><g clip-path="url(#SVGID_10_)"><defs><rect id="SVGID_11_" width="851" height="851" x="44.5" y="-79.5"/></defs><clipPath id="SVGID_12_"><use overflow="visible" xlink:href="#SVGID_11_"/></clipPath></g></g></g></svg>